# xmcd
#
# Track frame offsets:
#	150
#	13867
#	31655
#	48512
#	65882
#	82935
#	103572
#	122312
#	141320
#	157947
#	178235
#	195400
#	208892
#	239751
#
# Disc length: 4102 seconds
#
# Revision: 1
# Processed by: cddbd v1.5.2PL0 Copyright (c) Steve Scherf et al.
# Submitted via: audiograbber 1.80
#
DISCID=c010040e
DTITLE=Jamie O'Neal - Shiver
DYEAR=1900
DGENRE=Country
TTITLE0=When I Think About Angels
TTITLE1=There Is No Arizona
TTITLE2=When We Belong
TTITLE3=No More Protecting My Heart
TTITLE4=She Hasn't Heard It Yet
TTITLE5=You Rescued Me
TTITLE6=Shiver
TTITLE7=The ONly Thing Wrong
TTITLE8=I'm Still Waiting
TTITLE9=I'm Not Gonna Do Anything Without You
TTITLE10=Sanctuary
TTITLE11=Frantic
TTITLE12=To Be With You
TTITLE13=Data Track
EXTD=
EXTT0=
EXTT1=
EXTT2=
EXTT3=
EXTT4=
EXTT5=
EXTT6=
EXTT7=
EXTT8=
EXTT9=
EXTT10=
EXTT11=
EXTT12=
EXTT13=
PLAYORDER=
